<svg width="20" height="20" viewBox="0 0 20 20" fill="none" xmlns="http://www.w3.org/2000/svg">
<path d="M13.1266 17.0574V6.786C13.1266 5.56878 12.443 4.86845 11.2507 4.86845H8.42441C7.2322 4.86845 6.54855 5.56878 6.54855 6.786V17.0574C6.54855 18.2663 7.2322 18.975 8.42441 18.975H11.2507C12.443 18.975 13.1266 18.2663 13.1266 17.0574ZM3.17199 10.1209H16.4698C17.0283 10.1209 17.4953 9.71238 17.4953 9.12875C17.4953 8.72024 17.3119 8.4451 16.895 8.00323L10.7422 1.4252C10.442 1.10005 10.1252 1 9.84174 1C9.5666 1 9.24979 1.10838 8.94966 1.4252L2.73845 8.00323C2.36328 8.40343 2.19653 8.73691 2.19653 9.14544C2.19653 9.71238 2.61339 10.1209 3.17199 10.1209Z" fill="white" fill-opacity="0.85" style="fill:white;fill-opacity:0.85;"/>
</svg>
