<svg width="20" height="20" viewBox="0 0 20 20" fill="none" xmlns="http://www.w3.org/2000/svg">
<path d="M9.83763 1.00781C9.55557 1.00781 9.23079 1.1163 8.9231 1.4334L2.55556 8.01753C2.17094 8.41809 2 8.75189 2 9.16078C2 9.7282 2.42735 10.1372 3 10.1372H6.26497V16.9132C6.26497 18.2317 7.0342 18.9995 8.35899 18.9995H11.3077C12.6325 18.9995 13.4017 18.2317 13.4017 16.9132V10.1372H16.6326C17.2051 10.1372 17.6838 9.7282 17.6838 9.14409C17.6838 8.73519 17.4958 8.45981 17.0684 8.01753L10.7607 1.4334C10.453 1.10795 10.1282 1.00781 9.83763 1.00781ZM9.83763 2.50155C9.88891 2.50155 9.9402 2.52659 10 2.59334L15.8376 8.53492C15.8804 8.57664 15.906 8.62671 15.906 8.67678C15.906 8.75189 15.8632 8.79361 15.7864 8.79361H12.3932C12.1966 8.79361 12.1111 8.88541 12.1111 9.07733V16.8965C12.1111 17.4306 11.8035 17.7393 11.2479 17.7393H8.42737C7.87181 17.7393 7.55557 17.4306 7.55557 16.8965V9.07733C7.55557 8.88541 7.4701 8.79361 7.27352 8.79361H3.96581C3.88889 8.79361 3.83761 8.75189 3.83761 8.68512C3.83761 8.63506 3.86326 8.58498 3.91454 8.53492L9.67523 2.59334C9.74361 2.52659 9.78634 2.50155 9.83763 2.50155Z" fill="white" fill-opacity="0.85" style="fill:white;fill-opacity:0.85;"/>
</svg>
