<svg width="1024" height="1024" viewBox="0 0 1024 1024" fill="none" xmlns="http://www.w3.org/2000/svg">
<path d="M913.047 394.678C930.09 366.97 939.961 289.344 908.388 248.696C895.962 232.697 895.218 218.632 886.598 207.284C875.503 192.678 859.881 182.268 843.193 174.891C825.666 167.142 806.763 166.798 787.887 165.435C754.991 163.06 719.64 163.145 687.075 168.762C626.861 179.149 565.27 218.65 526.494 264.718C510.719 283.459 499.263 304.213 499.016 328.98C498.918 338.714 497.527 352.499 503.391 360.849C506.752 365.634 511.735 373.945 518.268 374.156C528.729 374.494 543.325 376.497 552.572 371.004C569.401 361.007 578.33 344.893 589.151 329.33C600.48 313.038 612.816 296.999 619.78 278.201C627.553 257.216 633.831 233.988 634.219 211.487C634.596 189.624 634.208 167.376 618.817 150.639C606.168 136.884 590.67 133.332 572.699 129.889C540.399 123.701 507.634 121.125 475.3 128.489C336.346 160.135 253.598 321.186 284.791 454.791C290.77 480.402 301.254 503.616 315.069 525.969C326.66 544.724 342.71 549.981 364.075 548.733C382.366 547.664 390.446 524.205 392.428 508.809C395.514 484.842 393.799 456.884 378.251 437.193C364.598 419.9 342.469 410.726 321.72 405.324C277.2 393.736 226.263 388.322 184.854 411.278C160.294 424.893 137.428 440.93 120.446 463.633C85.2456 510.693 87.5348 579.823 121.321 626.653C134.281 644.615 147.242 661.428 166.739 672.705C194.864 688.972 237.493 698.112 267.376 680.672C277.395 674.825 285.804 651.993 286.278 640.836C286.962 624.748 285.397 616.652 268.339 612.995C257.1 610.586 242.17 607.087 230.884 610.719C217.766 614.94 206.497 627.538 198.155 637.859C169.267 673.607 155.292 717.129 138.736 759.292C128.94 784.24 119.934 803.702 130.948 829.596C136.804 843.365 147.072 857.281 158.601 866.892C176.614 881.91 207.731 886.374 229.659 891.319C257.387 897.572 285.585 900.607 314.019 899.899C342.118 899.199 373.229 896.708 397.154 880.375C431.935 856.631 459.071 833.448 472.068 795.365C474.028 789.623 472.693 736.058 462.786 732.589C454.819 729.8 427.399 744.244 423.071 748.477C411.887 759.414 398.928 773.058 397.154 788.709C395.395 804.219 393.589 822.377 401.179 836.687C408.63 850.737 440.713 863.495 453.685 873.021C476.306 889.633 508.647 894.959 535.77 895.434C591.466 896.409 653.721 889.504 705.89 868.994C727.89 860.344 746.08 849.981 760.584 830.821C775.67 810.893 779.035 790.291 780.273 765.859C781.645 738.788 781.624 701.042 761.371 679.621C747.749 665.214 727.69 680.912 717.966 691.353C706.104 704.089 700.194 715.705 697.489 732.94C694.806 750.032 690.944 771.833 697.051 788.709C703.505 806.542 721.306 823.035 736.518 833.273C762.008 850.429 796.152 854.68 826.129 851.484C866.999 847.125 885.747 817.9 891.236 780.042C897.347 737.906 909.248 669.012 874.522 634.27C830.755 590.483 774.855 575.951 716.041 565.893C683.597 560.344 643.812 555.466 617.329 533.849C604.576 523.438 602.438 504.559 600.965 489.373C598.507 464.023 601.155 447.46 621.355 430.889C637.391 417.733 659.321 405.105 680.162 402.173C708.706 398.157 737.177 401.579 764.697 409.352C781.449 414.083 796.62 422.316 813.702 426.161C825.059 428.718 835.713 428.339 847.131 429.663C856.129 430.707 862.638 431.31 870.934 426.687C879.959 421.658 888.072 414.977 895.962 408.476C901.728 403.725 908.193 402.568 913.047 394.678Z" stroke="#FBF9F5" style="stroke:#FBF9F5;stroke:color(display-p3 0.9843 0.9765 0.9608);stroke-opacity:1;" stroke-width="50" stroke-linecap="round"/>
</svg>
